<svg xmlns="http://www.w3.org/2000/svg" width="256" height="256" viewBox="0 0 100 100"><rect width="100" height="100" rx="20" fill="#07192f"></rect><path fill="#fff" d="M43.29 33.14L43.29 56.59Q43.29 64.01 38.57 68.65L38.57 68.65Q33.58 73.64 24.79 73.64L24.79 73.64Q19.77 73.64 15.27 71.04L15.27 71.04Q11.82 69.07 10.03 66.51L10.03 66.51Q9.68 64.36 9.68 62.60L9.68 62.60Q9.68 56.87 13.16 53.81L13.16 53.81Q15.97 51.35 20.08 51.35L20.08 51.35Q23.21 51.35 25.78 53.01L25.78 53.01Q28.38 54.76 29.61 57.86L29.61 57.86Q30.73 57.86 30.73 56.70L30.73 56.70Q30.73 56.10 30.22 55.12Q29.71 54.13 28.77 53.15L28.77 53.15Q26.27 50.58 22.75 49.98L22.75 49.98L22.75 29.73Q24.51 28.43 27.18 27.55Q29.86 26.67 33.27 26.67Q36.68 26.67 39.42 27.87L39.42 27.87Q43.29 29.63 43.29 33.14L43.29 33.14ZM67.33 64.40L67.33 64.40L63.25 72.34Q60.62 73.33 57.52 73.33L57.52 73.33Q52.07 73.33 48.59 70.23Q45.11 67.14 45.11 61.90L45.11 61.90Q45.11 57.26 48.24 53.64Q51.37 50.02 57.10 47.56L57.10 47.56Q56.68 46.40 55.66 46.40Q54.64 46.40 51.93 48.26L51.93 48.26Q49.30 46.89 47.31 43.72Q45.32 40.56 45.32 36.41Q45.32 32.26 48.38 29.31Q51.44 26.36 56.82 26.36L56.82 26.36Q61.46 26.36 64.45 28.08L64.45 28.08L68.18 35.50L71.20 27.90Q74.19 26.57 77.88 26.57L77.88 26.57Q83.12 26.57 86.39 29.45L86.39 29.45Q89.66 32.40 89.66 37.71L89.66 37.71Q89.66 42.11 86.51 45.96Q83.36 49.81 78.44 52.06L78.44 52.06Q78.83 53.08 79.83 53.08Q80.83 53.08 83.08 51.53L83.08 51.53L90.32 60.60Q90.32 66.26 87.51 69.63L87.51 69.63Q84.42 73.36 78.97 73.36L78.97 73.36Q70.67 73.36 67.33 64.40Z"></path></svg>